# xmcd
#
# Track frame offsets: 
#        150
#        17250
#        35252
#        52217
#        78255
#        109827
#        135167
#
# Disc length: 2168 seconds
#
# Revision: 0
# Processed by: cddbd v1.5.2PL0 Copyright (c) Steve Scherf et al.
# Submitted via: ExactAudioCopy v0.99pb5
#
DISCID=49087607
DTITLE=Caprice - (Maxi) There Goes Your Heart
DYEAR=1999
DGENRE=
TTITLE0=There goes your heart (Radio edit)
TTITLE1=There goes your heart (Phunky bass radio edit)
TTITLE2=There goes your heart (Gravesend gang club mix edit)
TTITLE3=There goes your heart (Paradigm trip mix)
TTITLE4=There goes your heart (Original extended mix)
TTITLE5=There goes your heart (Phunky bass mix)
TTITLE6=There goes your heart (Gravesend gang club mix)
EXTD=
EXTT0=
EXTT1=
EXTT2=
EXTT3=
EXTT4=
EXTT5=
EXTT6=
PLAYORDER=
